<mxfile host="app.diagrams.net" modified="2023-06-22T14:11:46.418Z" agent="Mozilla/5.0 (Windows NT 10.0; Win64; x64) AppleWebKit/537.36 (KHTML, like Gecko) Chrome/114.0.0.0 Safari/537.36" etag="QKMCwN2XRW1xE0HuZXd7" version="21.5.0" type="github">
  <diagram name="PÃ¡gina-1" id="bcggJst4Lfgpijk-xnBO">
    <mxGraphModel dx="880" dy="484" grid="1" gridSize="10" guides="1" tooltips="1" connect="1" arrows="1" fold="1" page="1" pageScale="1" pageWidth="827" pageHeight="1169" math="0" shadow="0">
      <root>
        <mxCell id="0" />
        <mxCell id="1" parent="0" />
        <mxCell id="1POWXPuu06_e3D0F7bsV-30" style="edgeStyle=orthogonalEdgeStyle;rounded=0;orthogonalLoop=1;jettySize=auto;html=1;exitX=1;exitY=0.5;exitDx=0;exitDy=0;" edge="1" parent="1" source="1POWXPuu06_e3D0F7bsV-2" target="1POWXPuu06_e3D0F7bsV-28">
          <mxGeometry relative="1" as="geometry" />
        </mxCell>
        <mxCell id="1POWXPuu06_e3D0F7bsV-44" style="edgeStyle=orthogonalEdgeStyle;rounded=0;orthogonalLoop=1;jettySize=auto;html=1;exitX=0.5;exitY=1;exitDx=0;exitDy=0;entryX=0.5;entryY=0;entryDx=0;entryDy=0;" edge="1" parent="1" source="1POWXPuu06_e3D0F7bsV-2" target="1POWXPuu06_e3D0F7bsV-43">
          <mxGeometry relative="1" as="geometry" />
        </mxCell>
        <mxCell id="1POWXPuu06_e3D0F7bsV-2" value="&lt;font style=&quot;vertical-align: inherit;&quot;&gt;&lt;font style=&quot;vertical-align: inherit;&quot;&gt;Coche&lt;/font&gt;&lt;/font&gt;" style="rounded=0;whiteSpace=wrap;html=1;" vertex="1" parent="1">
          <mxGeometry x="200" y="120" width="120" height="60" as="geometry" />
        </mxCell>
        <mxCell id="1POWXPuu06_e3D0F7bsV-12" style="edgeStyle=orthogonalEdgeStyle;rounded=0;orthogonalLoop=1;jettySize=auto;html=1;exitX=1;exitY=0.5;exitDx=0;exitDy=0;entryX=0;entryY=0.25;entryDx=0;entryDy=0;" edge="1" parent="1" source="1POWXPuu06_e3D0F7bsV-3" target="1POWXPuu06_e3D0F7bsV-2">
          <mxGeometry relative="1" as="geometry" />
        </mxCell>
        <mxCell id="1POWXPuu06_e3D0F7bsV-3" value="&lt;font style=&quot;vertical-align: inherit;&quot;&gt;&lt;font style=&quot;vertical-align: inherit;&quot;&gt;matricula&lt;/font&gt;&lt;/font&gt;" style="ellipse;whiteSpace=wrap;html=1;" vertex="1" parent="1">
          <mxGeometry x="25" y="30" width="90" height="50" as="geometry" />
        </mxCell>
        <mxCell id="1POWXPuu06_e3D0F7bsV-11" style="edgeStyle=orthogonalEdgeStyle;rounded=0;orthogonalLoop=1;jettySize=auto;html=1;" edge="1" parent="1" source="1POWXPuu06_e3D0F7bsV-4" target="1POWXPuu06_e3D0F7bsV-2">
          <mxGeometry relative="1" as="geometry" />
        </mxCell>
        <mxCell id="1POWXPuu06_e3D0F7bsV-4" value="&lt;font style=&quot;vertical-align: inherit;&quot;&gt;&lt;font style=&quot;vertical-align: inherit;&quot;&gt;marca&lt;/font&gt;&lt;/font&gt;" style="ellipse;whiteSpace=wrap;html=1;" vertex="1" parent="1">
          <mxGeometry x="25" y="90" width="90" height="50" as="geometry" />
        </mxCell>
        <mxCell id="1POWXPuu06_e3D0F7bsV-10" style="edgeStyle=orthogonalEdgeStyle;rounded=0;orthogonalLoop=1;jettySize=auto;html=1;entryX=0;entryY=0.833;entryDx=0;entryDy=0;entryPerimeter=0;" edge="1" parent="1" source="1POWXPuu06_e3D0F7bsV-5" target="1POWXPuu06_e3D0F7bsV-2">
          <mxGeometry relative="1" as="geometry" />
        </mxCell>
        <mxCell id="1POWXPuu06_e3D0F7bsV-5" value="&lt;font style=&quot;vertical-align: inherit;&quot;&gt;&lt;font style=&quot;vertical-align: inherit;&quot;&gt;precio&lt;/font&gt;&lt;/font&gt;" style="ellipse;whiteSpace=wrap;html=1;" vertex="1" parent="1">
          <mxGeometry x="25" y="150" width="90" height="50" as="geometry" />
        </mxCell>
        <mxCell id="1POWXPuu06_e3D0F7bsV-13" style="edgeStyle=orthogonalEdgeStyle;rounded=0;orthogonalLoop=1;jettySize=auto;html=1;exitX=0.5;exitY=1;exitDx=0;exitDy=0;entryX=0;entryY=0;entryDx=0;entryDy=0;" edge="1" parent="1" source="1POWXPuu06_e3D0F7bsV-6" target="1POWXPuu06_e3D0F7bsV-2">
          <mxGeometry relative="1" as="geometry" />
        </mxCell>
        <mxCell id="1POWXPuu06_e3D0F7bsV-6" value="&lt;font style=&quot;vertical-align: inherit;&quot;&gt;&lt;font style=&quot;vertical-align: inherit;&quot;&gt;modelo&lt;/font&gt;&lt;/font&gt;" style="ellipse;whiteSpace=wrap;html=1;" vertex="1" parent="1">
          <mxGeometry x="170" y="10" width="90" height="45" as="geometry" />
        </mxCell>
        <mxCell id="1POWXPuu06_e3D0F7bsV-14" style="edgeStyle=orthogonalEdgeStyle;rounded=0;orthogonalLoop=1;jettySize=auto;html=1;" edge="1" parent="1" source="1POWXPuu06_e3D0F7bsV-8" target="1POWXPuu06_e3D0F7bsV-2">
          <mxGeometry relative="1" as="geometry" />
        </mxCell>
        <mxCell id="1POWXPuu06_e3D0F7bsV-8" value="&lt;font style=&quot;vertical-align: inherit;&quot;&gt;&lt;font style=&quot;vertical-align: inherit;&quot;&gt;&lt;font style=&quot;vertical-align: inherit;&quot;&gt;&lt;font style=&quot;vertical-align: inherit;&quot;&gt;color&lt;/font&gt;&lt;/font&gt;&lt;/font&gt;&lt;/font&gt;" style="ellipse;whiteSpace=wrap;html=1;" vertex="1" parent="1">
          <mxGeometry x="270" y="10" width="90" height="45" as="geometry" />
        </mxCell>
        <mxCell id="1POWXPuu06_e3D0F7bsV-29" style="edgeStyle=orthogonalEdgeStyle;rounded=0;orthogonalLoop=1;jettySize=auto;html=1;" edge="1" parent="1" source="1POWXPuu06_e3D0F7bsV-15" target="1POWXPuu06_e3D0F7bsV-28">
          <mxGeometry relative="1" as="geometry" />
        </mxCell>
        <mxCell id="1POWXPuu06_e3D0F7bsV-15" value="&lt;font style=&quot;vertical-align: inherit;&quot;&gt;&lt;font style=&quot;vertical-align: inherit;&quot;&gt;&lt;font style=&quot;vertical-align: inherit;&quot;&gt;&lt;font style=&quot;vertical-align: inherit;&quot;&gt;cliente&lt;/font&gt;&lt;/font&gt;&lt;/font&gt;&lt;/font&gt;" style="rounded=0;whiteSpace=wrap;html=1;" vertex="1" parent="1">
          <mxGeometry x="540" y="110" width="120" height="60" as="geometry" />
        </mxCell>
        <mxCell id="1POWXPuu06_e3D0F7bsV-22" style="edgeStyle=orthogonalEdgeStyle;rounded=0;orthogonalLoop=1;jettySize=auto;html=1;" edge="1" parent="1" source="1POWXPuu06_e3D0F7bsV-16">
          <mxGeometry relative="1" as="geometry">
            <mxPoint x="560" y="110" as="targetPoint" />
          </mxGeometry>
        </mxCell>
        <mxCell id="1POWXPuu06_e3D0F7bsV-16" value="&lt;font style=&quot;vertical-align: inherit;&quot;&gt;&lt;font style=&quot;vertical-align: inherit;&quot;&gt;cve_cliente&lt;/font&gt;&lt;/font&gt;" style="ellipse;whiteSpace=wrap;html=1;" vertex="1" parent="1">
          <mxGeometry x="500" y="10" width="90" height="45" as="geometry" />
        </mxCell>
        <mxCell id="1POWXPuu06_e3D0F7bsV-24" style="edgeStyle=orthogonalEdgeStyle;rounded=0;orthogonalLoop=1;jettySize=auto;html=1;entryX=1;entryY=0.25;entryDx=0;entryDy=0;" edge="1" parent="1" source="1POWXPuu06_e3D0F7bsV-17" target="1POWXPuu06_e3D0F7bsV-15">
          <mxGeometry relative="1" as="geometry" />
        </mxCell>
        <mxCell id="1POWXPuu06_e3D0F7bsV-17" value="&lt;font style=&quot;vertical-align: inherit;&quot;&gt;&lt;font style=&quot;vertical-align: inherit;&quot;&gt;&lt;font style=&quot;vertical-align: inherit;&quot;&gt;&lt;font style=&quot;vertical-align: inherit;&quot;&gt;&lt;font style=&quot;vertical-align: inherit;&quot;&gt;&lt;font style=&quot;vertical-align: inherit;&quot;&gt;nombre&lt;/font&gt;&lt;/font&gt;&lt;/font&gt;&lt;/font&gt;&lt;/font&gt;&lt;/font&gt;" style="ellipse;whiteSpace=wrap;html=1;" vertex="1" parent="1">
          <mxGeometry x="737" y="10" width="90" height="45" as="geometry" />
        </mxCell>
        <mxCell id="1POWXPuu06_e3D0F7bsV-25" style="edgeStyle=orthogonalEdgeStyle;rounded=0;orthogonalLoop=1;jettySize=auto;html=1;" edge="1" parent="1" source="1POWXPuu06_e3D0F7bsV-18" target="1POWXPuu06_e3D0F7bsV-15">
          <mxGeometry relative="1" as="geometry" />
        </mxCell>
        <mxCell id="1POWXPuu06_e3D0F7bsV-18" value="&lt;font style=&quot;vertical-align: inherit;&quot;&gt;&lt;font style=&quot;vertical-align: inherit;&quot;&gt;nombre&lt;/font&gt;&lt;/font&gt;" style="ellipse;whiteSpace=wrap;html=1;" vertex="1" parent="1">
          <mxGeometry x="737" y="75" width="90" height="45" as="geometry" />
        </mxCell>
        <mxCell id="1POWXPuu06_e3D0F7bsV-26" style="edgeStyle=orthogonalEdgeStyle;rounded=0;orthogonalLoop=1;jettySize=auto;html=1;entryX=1;entryY=0.75;entryDx=0;entryDy=0;" edge="1" parent="1" source="1POWXPuu06_e3D0F7bsV-19" target="1POWXPuu06_e3D0F7bsV-15">
          <mxGeometry relative="1" as="geometry" />
        </mxCell>
        <mxCell id="1POWXPuu06_e3D0F7bsV-19" value="&lt;font style=&quot;vertical-align: inherit;&quot;&gt;&lt;font style=&quot;vertical-align: inherit;&quot;&gt;ciudad&lt;/font&gt;&lt;/font&gt;" style="ellipse;whiteSpace=wrap;html=1;" vertex="1" parent="1">
          <mxGeometry x="737" y="127.5" width="90" height="45" as="geometry" />
        </mxCell>
        <mxCell id="1POWXPuu06_e3D0F7bsV-27" style="edgeStyle=orthogonalEdgeStyle;rounded=0;orthogonalLoop=1;jettySize=auto;html=1;" edge="1" parent="1" source="1POWXPuu06_e3D0F7bsV-20">
          <mxGeometry relative="1" as="geometry">
            <mxPoint x="660" y="160" as="targetPoint" />
          </mxGeometry>
        </mxCell>
        <mxCell id="1POWXPuu06_e3D0F7bsV-20" value="&lt;font style=&quot;vertical-align: inherit;&quot;&gt;&lt;font style=&quot;vertical-align: inherit;&quot;&gt;&lt;font style=&quot;vertical-align: inherit;&quot;&gt;&lt;font style=&quot;vertical-align: inherit;&quot;&gt;&lt;font style=&quot;vertical-align: inherit;&quot;&gt;&lt;font style=&quot;vertical-align: inherit;&quot;&gt;rfc&lt;/font&gt;&lt;/font&gt;&lt;/font&gt;&lt;/font&gt;&lt;/font&gt;&lt;/font&gt;" style="ellipse;whiteSpace=wrap;html=1;" vertex="1" parent="1">
          <mxGeometry x="737" y="190" width="90" height="45" as="geometry" />
        </mxCell>
        <mxCell id="1POWXPuu06_e3D0F7bsV-23" style="edgeStyle=orthogonalEdgeStyle;rounded=0;orthogonalLoop=1;jettySize=auto;html=1;entryX=0.583;entryY=0;entryDx=0;entryDy=0;entryPerimeter=0;" edge="1" parent="1" source="1POWXPuu06_e3D0F7bsV-21" target="1POWXPuu06_e3D0F7bsV-15">
          <mxGeometry relative="1" as="geometry" />
        </mxCell>
        <mxCell id="1POWXPuu06_e3D0F7bsV-21" value="&lt;font style=&quot;vertical-align: inherit;&quot;&gt;&lt;font style=&quot;vertical-align: inherit;&quot;&gt;&lt;font style=&quot;vertical-align: inherit;&quot;&gt;&lt;font style=&quot;vertical-align: inherit;&quot;&gt;&lt;font style=&quot;vertical-align: inherit;&quot;&gt;&lt;font style=&quot;vertical-align: inherit;&quot;&gt;telefono&lt;/font&gt;&lt;/font&gt;&lt;/font&gt;&lt;/font&gt;&lt;/font&gt;&lt;/font&gt;" style="ellipse;whiteSpace=wrap;html=1;" vertex="1" parent="1">
          <mxGeometry x="600" y="10" width="90" height="45" as="geometry" />
        </mxCell>
        <mxCell id="1POWXPuu06_e3D0F7bsV-28" value="&lt;font style=&quot;vertical-align: inherit;&quot;&gt;&lt;font style=&quot;vertical-align: inherit;&quot;&gt;comprar&lt;/font&gt;&lt;/font&gt;" style="rhombus;whiteSpace=wrap;html=1;" vertex="1" parent="1">
          <mxGeometry x="374" y="110" width="80" height="80" as="geometry" />
        </mxCell>
        <mxCell id="1POWXPuu06_e3D0F7bsV-45" style="edgeStyle=orthogonalEdgeStyle;rounded=0;orthogonalLoop=1;jettySize=auto;html=1;entryX=0.5;entryY=1;entryDx=0;entryDy=0;" edge="1" parent="1" source="1POWXPuu06_e3D0F7bsV-31" target="1POWXPuu06_e3D0F7bsV-43">
          <mxGeometry relative="1" as="geometry">
            <Array as="points">
              <mxPoint x="260" y="310" />
              <mxPoint x="260" y="310" />
            </Array>
          </mxGeometry>
        </mxCell>
        <mxCell id="1POWXPuu06_e3D0F7bsV-31" value="&lt;font style=&quot;vertical-align: inherit;&quot;&gt;&lt;font style=&quot;vertical-align: inherit;&quot;&gt;bitacoraServicio&lt;/font&gt;&lt;/font&gt;" style="rounded=0;whiteSpace=wrap;html=1;" vertex="1" parent="1">
          <mxGeometry x="210" y="310" width="120" height="60" as="geometry" />
        </mxCell>
        <mxCell id="1POWXPuu06_e3D0F7bsV-38" style="edgeStyle=orthogonalEdgeStyle;rounded=0;orthogonalLoop=1;jettySize=auto;html=1;exitX=1;exitY=0.5;exitDx=0;exitDy=0;entryX=0;entryY=0.25;entryDx=0;entryDy=0;" edge="1" parent="1" source="1POWXPuu06_e3D0F7bsV-33" target="1POWXPuu06_e3D0F7bsV-31">
          <mxGeometry relative="1" as="geometry" />
        </mxCell>
        <mxCell id="1POWXPuu06_e3D0F7bsV-33" value="&lt;font style=&quot;vertical-align: inherit;&quot;&gt;&lt;font style=&quot;vertical-align: inherit;&quot;&gt;&lt;font style=&quot;vertical-align: inherit;&quot;&gt;&lt;font style=&quot;vertical-align: inherit;&quot;&gt;&lt;font style=&quot;vertical-align: inherit;&quot;&gt;&lt;font style=&quot;vertical-align: inherit;&quot;&gt;no_revision&lt;br&gt;&lt;/font&gt;&lt;/font&gt;&lt;/font&gt;&lt;/font&gt;&lt;/font&gt;&lt;/font&gt;" style="ellipse;whiteSpace=wrap;html=1;" vertex="1" parent="1">
          <mxGeometry x="10" y="250" width="90" height="45" as="geometry" />
        </mxCell>
        <mxCell id="1POWXPuu06_e3D0F7bsV-39" style="edgeStyle=orthogonalEdgeStyle;rounded=0;orthogonalLoop=1;jettySize=auto;html=1;" edge="1" parent="1" source="1POWXPuu06_e3D0F7bsV-34" target="1POWXPuu06_e3D0F7bsV-31">
          <mxGeometry relative="1" as="geometry" />
        </mxCell>
        <mxCell id="1POWXPuu06_e3D0F7bsV-34" value="&lt;font style=&quot;vertical-align: inherit;&quot;&gt;&lt;font style=&quot;vertical-align: inherit;&quot;&gt;frenos&lt;/font&gt;&lt;/font&gt;" style="ellipse;whiteSpace=wrap;html=1;" vertex="1" parent="1">
          <mxGeometry x="10" y="300" width="90" height="45" as="geometry" />
        </mxCell>
        <mxCell id="1POWXPuu06_e3D0F7bsV-40" style="edgeStyle=orthogonalEdgeStyle;rounded=0;orthogonalLoop=1;jettySize=auto;html=1;exitX=1;exitY=0.5;exitDx=0;exitDy=0;entryX=0.017;entryY=0.883;entryDx=0;entryDy=0;entryPerimeter=0;" edge="1" parent="1" source="1POWXPuu06_e3D0F7bsV-35" target="1POWXPuu06_e3D0F7bsV-31">
          <mxGeometry relative="1" as="geometry" />
        </mxCell>
        <mxCell id="1POWXPuu06_e3D0F7bsV-35" value="&lt;font style=&quot;vertical-align: inherit;&quot;&gt;&lt;font style=&quot;vertical-align: inherit;&quot;&gt;&lt;font style=&quot;vertical-align: inherit;&quot;&gt;&lt;font style=&quot;vertical-align: inherit;&quot;&gt;&lt;font style=&quot;vertical-align: inherit;&quot;&gt;&lt;font style=&quot;vertical-align: inherit;&quot;&gt;aceite&lt;/font&gt;&lt;/font&gt;&lt;/font&gt;&lt;/font&gt;&lt;/font&gt;&lt;/font&gt;" style="ellipse;whiteSpace=wrap;html=1;" vertex="1" parent="1">
          <mxGeometry x="10" y="350" width="90" height="45" as="geometry" />
        </mxCell>
        <mxCell id="1POWXPuu06_e3D0F7bsV-41" value="" style="edgeStyle=orthogonalEdgeStyle;rounded=0;orthogonalLoop=1;jettySize=auto;html=1;" edge="1" parent="1" source="1POWXPuu06_e3D0F7bsV-36" target="1POWXPuu06_e3D0F7bsV-31">
          <mxGeometry relative="1" as="geometry" />
        </mxCell>
        <mxCell id="1POWXPuu06_e3D0F7bsV-36" value="&lt;font style=&quot;vertical-align: inherit;&quot;&gt;&lt;font style=&quot;vertical-align: inherit;&quot;&gt;filtro&lt;/font&gt;&lt;/font&gt;" style="ellipse;whiteSpace=wrap;html=1;" vertex="1" parent="1">
          <mxGeometry x="160" y="430" width="90" height="45" as="geometry" />
        </mxCell>
        <mxCell id="1POWXPuu06_e3D0F7bsV-42" style="edgeStyle=orthogonalEdgeStyle;rounded=0;orthogonalLoop=1;jettySize=auto;html=1;entryX=0.683;entryY=1.033;entryDx=0;entryDy=0;entryPerimeter=0;" edge="1" parent="1" source="1POWXPuu06_e3D0F7bsV-37" target="1POWXPuu06_e3D0F7bsV-31">
          <mxGeometry relative="1" as="geometry" />
        </mxCell>
        <mxCell id="1POWXPuu06_e3D0F7bsV-37" value="&lt;font style=&quot;vertical-align: inherit;&quot;&gt;&lt;font style=&quot;vertical-align: inherit;&quot;&gt;&lt;font style=&quot;vertical-align: inherit;&quot;&gt;&lt;font style=&quot;vertical-align: inherit;&quot;&gt;&lt;font style=&quot;vertical-align: inherit;&quot;&gt;&lt;font style=&quot;vertical-align: inherit;&quot;&gt;otros&lt;/font&gt;&lt;/font&gt;&lt;/font&gt;&lt;/font&gt;&lt;/font&gt;&lt;/font&gt;" style="ellipse;whiteSpace=wrap;html=1;" vertex="1" parent="1">
          <mxGeometry x="290" y="430" width="90" height="45" as="geometry" />
        </mxCell>
        <mxCell id="1POWXPuu06_e3D0F7bsV-43" value="&lt;font style=&quot;vertical-align: inherit;&quot;&gt;&lt;font style=&quot;vertical-align: inherit;&quot;&gt;&lt;font style=&quot;vertical-align: inherit;&quot;&gt;&lt;font style=&quot;vertical-align: inherit;&quot;&gt;revision&lt;/font&gt;&lt;/font&gt;&lt;/font&gt;&lt;/font&gt;" style="rhombus;whiteSpace=wrap;html=1;" vertex="1" parent="1">
          <mxGeometry x="225" y="210" width="70" height="70" as="geometry" />
        </mxCell>
      </root>
    </mxGraphModel>
  </diagram>
</mxfile>
